<mxfile host="app.diagrams.net" modified="2022-04-12T14:01:41.038Z" agent="5.0 (Windows NT 10.0; Win64; x64) AppleWebKit/537.36 (KHTML, like Gecko) Chrome/100.0.4896.75 Safari/537.36" etag="KlSkW3KYVTcE064fVqK4" version="17.2.2" type="github">
  <diagram id="sSbvg8dk0jx82eMkOKsB" name="Page-1">
    <mxGraphModel dx="1422" dy="754" grid="1" gridSize="10" guides="1" tooltips="1" connect="1" arrows="1" fold="1" page="1" pageScale="1" pageWidth="827" pageHeight="1169" math="0" shadow="0">
      <root>
        <mxCell id="0" />
        <mxCell id="1" parent="0" />
        <mxCell id="i0BiFiqmnD_56-dbXNdR-3" value="&lt;div style=&quot;background-color: rgb(255 , 255 , 255) ; font-family: &amp;#34;consolas&amp;#34; , &amp;#34;courier new&amp;#34; , monospace ; font-size: 14px ; line-height: 19px&quot;&gt;&lt;div&gt;&amp;nbsp; &lt;span style=&quot;color: #267f99&quot;&gt;std&lt;/span&gt;::promise&amp;lt;&lt;span style=&quot;color: #0000ff&quot;&gt;int&lt;/span&gt;&amp;gt; p1;&lt;/div&gt;&lt;div&gt;&amp;nbsp; &lt;span style=&quot;color: #267f99&quot;&gt;std&lt;/span&gt;::future&amp;lt;&lt;span style=&quot;color: #0000ff&quot;&gt;int&lt;/span&gt;&amp;gt; f1 = &lt;span style=&quot;color: #001080&quot;&gt;p1&lt;/span&gt;.&lt;span style=&quot;color: #795e26&quot;&gt;get_future&lt;/span&gt;();&lt;/div&gt;&lt;div&gt;&amp;nbsp; &lt;span style=&quot;color: #267f99&quot;&gt;std&lt;/span&gt;::thread &lt;span style=&quot;color: #795e26&quot;&gt;t1&lt;/span&gt;(test1, &lt;span style=&quot;color: #098658&quot;&gt;1&lt;/span&gt;, &amp;amp;f1);&lt;/div&gt;&lt;div&gt;&amp;nbsp; &lt;span style=&quot;color: #267f99&quot;&gt;std&lt;/span&gt;::&lt;span style=&quot;color: #267f99&quot;&gt;this_thread&lt;/span&gt;::&lt;span style=&quot;color: #795e26&quot;&gt;sleep_for&lt;/span&gt;(&lt;span style=&quot;color: #795e26&quot;&gt;seconds&lt;/span&gt;(&lt;span style=&quot;color: #098658&quot;&gt;1&lt;/span&gt;));&lt;/div&gt;&lt;div&gt;&amp;nbsp; &lt;span style=&quot;color: #001080&quot;&gt;p1&lt;/span&gt;.&lt;span style=&quot;color: #795e26&quot;&gt;set_value&lt;/span&gt;(&lt;span style=&quot;color: #098658&quot;&gt;123&lt;/span&gt;);&lt;/div&gt;&lt;div&gt;&amp;nbsp; &lt;span style=&quot;color: #001080&quot;&gt;t1&lt;/span&gt;.&lt;span style=&quot;color: #795e26&quot;&gt;join&lt;/span&gt;();&lt;/div&gt;&lt;/div&gt;" style="rounded=0;whiteSpace=wrap;html=1;align=left;fillColor=#d5e8d4;strokeColor=#82b366;" vertex="1" parent="1">
          <mxGeometry x="40" y="120" width="360" height="160" as="geometry" />
        </mxCell>
        <mxCell id="i0BiFiqmnD_56-dbXNdR-2" value="&lt;div style=&quot;background-color: rgb(255 , 255 , 255) ; font-family: &amp;#34;consolas&amp;#34; , &amp;#34;courier new&amp;#34; , monospace ; font-size: 14px ; line-height: 19px&quot;&gt;&lt;div&gt;&lt;span style=&quot;color: #0000ff&quot;&gt;void&lt;/span&gt; &lt;span style=&quot;color: #795e26&quot;&gt;test1&lt;/span&gt;(&lt;span style=&quot;color: #0000ff&quot;&gt;int&lt;/span&gt; &lt;span style=&quot;color: #001080&quot;&gt;a&lt;/span&gt;, &lt;span style=&quot;color: #267f99&quot;&gt;std&lt;/span&gt;::&lt;span style=&quot;color: #267f99&quot;&gt;future&lt;/span&gt;&amp;lt;&lt;span style=&quot;color: #0000ff&quot;&gt;int&lt;/span&gt;&amp;gt; &lt;span style=&quot;color: #0000ff&quot;&gt;*&lt;/span&gt;&lt;span style=&quot;color: #001080&quot;&gt;ftr&lt;/span&gt;) {&lt;/div&gt;&lt;div&gt;&amp;nbsp; &lt;span style=&quot;color: #0000ff&quot;&gt;auto&lt;/span&gt; val = &lt;span style=&quot;color: #001080&quot;&gt;ftr&lt;/span&gt;-&amp;gt;&lt;span style=&quot;color: #795e26&quot;&gt;get&lt;/span&gt;();&lt;/div&gt;&lt;div&gt;&amp;nbsp; &lt;span style=&quot;color: #267f99&quot;&gt;std&lt;/span&gt;::cout &amp;lt;&amp;lt; &lt;span style=&quot;color: #a31515&quot;&gt;&quot;test1 result: &quot;&lt;/span&gt; &amp;lt;&amp;lt; a + val &amp;lt;&amp;lt; &lt;span style=&quot;color: #267f99&quot;&gt;std&lt;/span&gt;::endl;&lt;/div&gt;&lt;div&gt;}&lt;/div&gt;&lt;/div&gt;" style="rounded=0;whiteSpace=wrap;html=1;align=left;fillColor=#fff2cc;strokeColor=#d6b656;" vertex="1" parent="1">
          <mxGeometry x="600" y="160" width="440" height="80" as="geometry" />
        </mxCell>
        <mxCell id="i0BiFiqmnD_56-dbXNdR-4" value="" style="endArrow=classic;html=1;rounded=0;" edge="1" parent="1" source="i0BiFiqmnD_56-dbXNdR-3" target="i0BiFiqmnD_56-dbXNdR-2">
          <mxGeometry width="50" height="50" relative="1" as="geometry">
            <mxPoint x="440" y="380" as="sourcePoint" />
            <mxPoint x="490" y="330" as="targetPoint" />
          </mxGeometry>
        </mxCell>
        <mxCell id="i0BiFiqmnD_56-dbXNdR-5" value="&lt;div style=&quot;background-color: rgb(255 , 255 , 255) ; font-family: &amp;#34;consolas&amp;#34; , &amp;#34;courier new&amp;#34; , monospace ; font-size: 14px ; line-height: 19px&quot;&gt;&lt;div&gt;&amp;nbsp; &lt;span style=&quot;color: #267f99&quot;&gt;std&lt;/span&gt;::promise&amp;lt;&lt;span style=&quot;color: #0000ff&quot;&gt;int&lt;/span&gt;&amp;gt; p2;&lt;/div&gt;&lt;div&gt;&amp;nbsp; &lt;span style=&quot;color: #267f99&quot;&gt;std&lt;/span&gt;::future&amp;lt;&lt;span style=&quot;color: #0000ff&quot;&gt;int&lt;/span&gt;&amp;gt; f2 = &lt;span style=&quot;color: #001080&quot;&gt;p2&lt;/span&gt;.&lt;span style=&quot;color: #795e26&quot;&gt;get_future&lt;/span&gt;();&lt;/div&gt;&lt;div&gt;&amp;nbsp; &lt;span style=&quot;color: #267f99&quot;&gt;std&lt;/span&gt;::thread &lt;span style=&quot;color: #795e26&quot;&gt;t2&lt;/span&gt;(test2, &lt;span style=&quot;color: #098658&quot;&gt;1&lt;/span&gt;, &amp;amp;p2);&lt;/div&gt;&lt;div&gt;&amp;nbsp; &lt;span style=&quot;color: #267f99&quot;&gt;std&lt;/span&gt;::cout &amp;lt;&amp;lt; &lt;span style=&quot;color: #001080&quot;&gt;f2&lt;/span&gt;.&lt;span style=&quot;color: #795e26&quot;&gt;get&lt;/span&gt;() &amp;lt;&amp;lt; &lt;span style=&quot;color: #267f99&quot;&gt;std&lt;/span&gt;::endl;&lt;/div&gt;&lt;div&gt;&amp;nbsp; &lt;span style=&quot;color: #001080&quot;&gt;t2&lt;/span&gt;.&lt;span style=&quot;color: #795e26&quot;&gt;join&lt;/span&gt;();&lt;/div&gt;&lt;/div&gt;" style="rounded=0;whiteSpace=wrap;html=1;align=left;fillColor=#d5e8d4;strokeColor=#82b366;" vertex="1" parent="1">
          <mxGeometry x="40" y="360" width="360" height="160" as="geometry" />
        </mxCell>
        <mxCell id="i0BiFiqmnD_56-dbXNdR-6" value="&lt;div style=&quot;background-color: rgb(255 , 255 , 255) ; font-family: &amp;#34;consolas&amp;#34; , &amp;#34;courier new&amp;#34; , monospace ; font-size: 14px ; line-height: 19px&quot;&gt;&lt;div&gt;&lt;span style=&quot;color: #0000ff&quot;&gt;void&lt;/span&gt; &lt;span style=&quot;color: #795e26&quot;&gt;test2&lt;/span&gt;(&lt;span style=&quot;color: #0000ff&quot;&gt;int&lt;/span&gt; &lt;span style=&quot;color: #001080&quot;&gt;a&lt;/span&gt;, &lt;span style=&quot;color: #267f99&quot;&gt;std&lt;/span&gt;::&lt;span style=&quot;color: #267f99&quot;&gt;promise&lt;/span&gt;&amp;lt;&lt;span style=&quot;color: #0000ff&quot;&gt;int&lt;/span&gt;&amp;gt; &lt;span style=&quot;color: #0000ff&quot;&gt;*&lt;/span&gt;&lt;span style=&quot;color: #001080&quot;&gt;pms&lt;/span&gt;) {&lt;/div&gt;&lt;div&gt;&amp;nbsp; &lt;span style=&quot;color: #001080&quot;&gt;pms&lt;/span&gt;-&amp;gt;&lt;span style=&quot;color: #795e26&quot;&gt;set_value&lt;/span&gt;(&lt;span style=&quot;color: #098658&quot;&gt;111&lt;/span&gt;);&lt;/div&gt;&lt;div&gt;&amp;nbsp; &lt;span style=&quot;color: #267f99&quot;&gt;std&lt;/span&gt;::cout &amp;lt;&amp;lt; &lt;span style=&quot;color: #a31515&quot;&gt;&quot;test2 result: &quot;&lt;/span&gt; &amp;lt;&amp;lt; a &amp;lt;&amp;lt; &lt;span style=&quot;color: #267f99&quot;&gt;std&lt;/span&gt;::endl;&lt;/div&gt;&lt;div&gt;}&lt;/div&gt;&lt;/div&gt;" style="rounded=0;whiteSpace=wrap;html=1;align=left;fillColor=#fff2cc;strokeColor=#d6b656;" vertex="1" parent="1">
          <mxGeometry x="600" y="400" width="440" height="80" as="geometry" />
        </mxCell>
        <mxCell id="i0BiFiqmnD_56-dbXNdR-7" value="" style="endArrow=classic;html=1;rounded=0;exitX=0;exitY=0.5;exitDx=0;exitDy=0;entryX=1;entryY=0.5;entryDx=0;entryDy=0;" edge="1" parent="1" source="i0BiFiqmnD_56-dbXNdR-6" target="i0BiFiqmnD_56-dbXNdR-5">
          <mxGeometry width="50" height="50" relative="1" as="geometry">
            <mxPoint x="540" y="420" as="sourcePoint" />
            <mxPoint x="590" y="370" as="targetPoint" />
          </mxGeometry>
        </mxCell>
        <mxCell id="i0BiFiqmnD_56-dbXNdR-8" value="" style="endArrow=none;dashed=1;html=1;dashPattern=1 3;strokeWidth=2;rounded=0;" edge="1" parent="1">
          <mxGeometry width="50" height="50" relative="1" as="geometry">
            <mxPoint x="500" y="560" as="sourcePoint" />
            <mxPoint x="500" y="40" as="targetPoint" />
          </mxGeometry>
        </mxCell>
        <mxCell id="i0BiFiqmnD_56-dbXNdR-9" value="&lt;b&gt;&lt;i&gt;&lt;font style=&quot;font-size: 20px&quot;&gt;主线程&lt;/font&gt;&lt;/i&gt;&lt;/b&gt;" style="text;html=1;strokeColor=none;fillColor=none;align=center;verticalAlign=middle;whiteSpace=wrap;rounded=0;" vertex="1" parent="1">
          <mxGeometry x="160" y="40" width="120" height="40" as="geometry" />
        </mxCell>
        <mxCell id="i0BiFiqmnD_56-dbXNdR-10" value="&lt;b&gt;&lt;i&gt;&lt;font style=&quot;font-size: 20px&quot;&gt;子线程&lt;/font&gt;&lt;/i&gt;&lt;/b&gt;" style="text;html=1;strokeColor=none;fillColor=none;align=center;verticalAlign=middle;whiteSpace=wrap;rounded=0;" vertex="1" parent="1">
          <mxGeometry x="760" y="40" width="120" height="40" as="geometry" />
        </mxCell>
        <mxCell id="i0BiFiqmnD_56-dbXNdR-14" value="&lt;font color=&quot;#67ab9f&quot;&gt;&lt;b&gt;主线程使用promise.set_value设置传入值&lt;/b&gt;&lt;/font&gt;" style="text;html=1;strokeColor=none;fillColor=none;align=left;verticalAlign=middle;whiteSpace=wrap;rounded=0;fontSize=12;" vertex="1" parent="1">
          <mxGeometry x="390" y="160" width="100" height="40" as="geometry" />
        </mxCell>
        <mxCell id="i0BiFiqmnD_56-dbXNdR-15" value="&lt;font color=&quot;#ea6b66&quot;&gt;子线程使用future.get获取传入值&lt;/font&gt;" style="text;html=1;strokeColor=none;fillColor=none;align=left;verticalAlign=middle;whiteSpace=wrap;rounded=0;fontSize=12;fontColor=#67AB9F;" vertex="1" parent="1">
          <mxGeometry x="520" y="120" width="90" height="40" as="geometry" />
        </mxCell>
        <mxCell id="i0BiFiqmnD_56-dbXNdR-16" value="&lt;b&gt;&lt;font color=&quot;#ea6b66&quot;&gt;子线程使用promise.set_value设置返回值&lt;/font&gt;&lt;/b&gt;" style="text;html=1;strokeColor=none;fillColor=none;align=left;verticalAlign=middle;whiteSpace=wrap;rounded=0;fontSize=12;" vertex="1" parent="1">
          <mxGeometry x="520" y="360" width="100" height="40" as="geometry" />
        </mxCell>
        <mxCell id="i0BiFiqmnD_56-dbXNdR-17" value="子线程使用future.get获取返回值" style="text;html=1;strokeColor=none;fillColor=none;align=left;verticalAlign=middle;whiteSpace=wrap;rounded=0;fontSize=12;fontColor=#67AB9F;" vertex="1" parent="1">
          <mxGeometry x="400" y="390" width="90" height="40" as="geometry" />
        </mxCell>
      </root>
    </mxGraphModel>
  </diagram>
</mxfile>
